<svg width="34" height="34" viewBox="0 0 34 34" fill="none" xmlns="http://www.w3.org/2000/svg">
<g id="solar:arrow-up-outline">
<path id="Vector" fill-rule="evenodd" clip-rule="evenodd" d="M22.6274 10.5642C22.8262 10.5643 23.0168 10.6433 23.1573 10.7839C23.2978 10.9244 23.3768 11.115 23.377 11.3137L23.377 19.799C23.3805 19.8997 23.3638 20 23.3277 20.0941C23.2916 20.1881 23.237 20.2739 23.167 20.3464C23.0971 20.4188 23.0133 20.4765 22.9205 20.5158C22.8278 20.5552 22.7281 20.5755 22.6274 20.5755C22.5267 20.5755 22.427 20.5552 22.3343 20.5158C22.2416 20.4765 22.1578 20.4188 22.0878 20.3464C22.0179 20.2739 21.9632 20.1881 21.9272 20.0941C21.8911 20 21.8743 19.8997 21.8779 19.799L21.8779 13.1239L11.8441 23.1578C11.7034 23.2984 11.5126 23.3775 11.3137 23.3775C11.1148 23.3775 10.924 23.2984 10.7834 23.1578C10.6427 23.0171 10.5637 22.8264 10.5637 22.6275C10.5637 22.4285 10.6427 22.2378 10.7834 22.0971L20.8172 12.0633L14.1421 12.0633C14.0415 12.0668 13.9412 12.0501 13.8471 12.014C13.7531 11.9779 13.6673 11.9233 13.5948 11.8533C13.5223 11.7834 13.4647 11.6996 13.4253 11.6069C13.386 11.5141 13.3657 11.4145 13.3657 11.3137C13.3657 11.213 13.386 11.1133 13.4253 11.0206C13.4647 10.9279 13.5223 10.8441 13.5948 10.7741C13.6673 10.7042 13.7531 10.6495 13.8471 10.6135C13.9412 10.5774 14.0415 10.5607 14.1421 10.5642L22.6274 10.5642Z" fill="#542A00"/>
</g>
</svg>
