<svg width="30" height="30" viewBox="0 0 30 30" fill="none" xmlns="http://www.w3.org/2000/svg">
<g id="tabler:award">
<g id="Group">
<path id="Vector" d="M7.5 11.25C7.5 13.2391 8.29018 15.1468 9.6967 16.5533C11.1032 17.9598 13.0109 18.75 15 18.75C16.9891 18.75 18.8968 17.9598 20.3033 16.5533C21.7098 15.1468 22.5 13.2391 22.5 11.25C22.5 9.26088 21.7098 7.35322 20.3033 5.9467C18.8968 4.54018 16.9891 3.75 15 3.75C13.0109 3.75 11.1032 4.54018 9.6967 5.9467C8.29018 7.35322 7.5 9.26088 7.5 11.25Z" stroke="#542A00" stroke-width="2" stroke-linecap="round" stroke-linejoin="round"/>
<path id="Vector_2" d="M14.9999 18.75L19.2499 26.1125L21.2474 22.0712L25.7449 22.3612L21.4949 15M8.50244 15L4.25244 22.3625L8.74994 22.0712L10.7474 26.1112L14.9974 18.75" stroke="#542A00" stroke-width="2" stroke-linecap="round" stroke-linejoin="round"/>
</g>
</g>
</svg>
