<svg width="30" height="30" viewBox="0 0 30 30" fill="none" xmlns="http://www.w3.org/2000/svg">
<g id="iconamoon:gift-thin">
<g id="Group">
<path id="Vector" d="M5 13.75V23.75C5 24.413 5.26339 25.0489 5.73223 25.5178C6.20107 25.9866 6.83696 26.25 7.5 26.25H22.5C23.163 26.25 23.7989 25.9866 24.2678 25.5178C24.7366 25.0489 25 24.413 25 23.75V13.75" stroke="#542A00" stroke-linecap="round" stroke-linejoin="round"/>
<path id="Vector_2" d="M15 6.875C15 5.71468 14.5391 4.60188 13.7186 3.78141C12.8981 2.96094 11.7853 2.5 10.625 2.5C9.7962 2.5 9.00134 2.82924 8.41529 3.41529C7.82924 4.00134 7.5 4.7962 7.5 5.625C7.5 6.4538 7.82924 7.24866 8.41529 7.83471C9.00134 8.42076 9.7962 8.75 10.625 8.75H15M15 6.875V8.75M15 6.875C15 5.71468 15.4609 4.60188 16.2814 3.78141C17.1019 2.96094 18.2147 2.5 19.375 2.5C20.2038 2.5 20.9987 2.82924 21.5847 3.41529C22.1708 4.00134 22.5 4.7962 22.5 5.625C22.5 6.03538 22.4192 6.44174 22.2621 6.82089C22.1051 7.20003 21.8749 7.54453 21.5847 7.83471C21.2945 8.12489 20.95 8.35508 20.5709 8.51212C20.1917 8.66917 19.7854 8.75 19.375 8.75H15" stroke="#542A00" stroke-linejoin="round"/>
<path id="Vector_3" d="M15 13.75V26.25M3.75 8.75H26.25V13.75H3.75V8.75Z" stroke="#542A00" stroke-linecap="round" stroke-linejoin="round"/>
</g>
</g>
</svg>
